<svg width="152" height="38" viewBox="0 0 152 38" fill="none" xmlns="http://www.w3.org/2000/svg">
<g clip-path="url(#clip0)">
<path d="M140.972 37.902C147.046 37.902 151.076 34.5994 151.076 28.8001V19.541H141.817V30.0779H140.107V7.92274H141.817V17.3982H151.076V9.20055C151.076 3.40127 147.027 0.0986328 140.972 0.0986328C134.897 0.0986328 130.867 3.40127 130.867 9.20055V28.7805C130.867 34.5994 134.917 37.902 140.972 37.902Z" fill="#131313"/>
<path d="M119.366 37.902C125.441 37.902 129.471 34.5994 129.471 28.8001V19.541H120.212V30.0779H118.501V7.92274H120.212V17.3982H129.471V9.20055C129.471 3.40127 125.421 0.0986328 119.366 0.0986328C113.292 0.0986328 109.242 3.40127 109.242 9.20055V28.7805C109.242 34.5994 113.292 37.902 119.366 37.902Z" fill="#131313"/>
<path d="M98.3926 30.2942H96.6823V7.72615H98.3926V30.2942ZM97.5473 0.0986328C91.4728 0.0986328 87.2266 3.3423 87.2266 9.63303V28.3676C87.2266 34.6584 91.4925 37.902 97.5473 37.902C103.622 37.902 107.868 34.6584 107.868 28.3676V9.63303C107.868 3.36195 103.602 0.0986328 97.5473 0.0986328Z" fill="#131313"/>
<path d="M76.5698 16.2965H74.8595V7.35184H76.5698V16.2965ZM85.829 33.4388V24.4351C85.829 21.0342 84.7084 18.9504 82.2118 18.1051C84.7674 17.2008 85.829 15.117 85.829 12.0306V7.82364C85.829 3.02695 83.7058 0.373047 78.6339 0.373047H65.7969V37.626H74.8398V22.8821H76.5501V33.6353C76.5501 35.1294 76.6484 36.4662 76.9826 37.626H86.399V37.0952C85.9272 36.4662 85.829 34.9721 85.829 33.4388Z" fill="#131313"/>
<path d="M55.1208 30.6669H53.3712V21.8205H55.1208V30.6669ZM53.3515 7.35184H55.1011V15.6477H53.3515V7.35184ZM64.38 11.2835V7.29286C64.38 2.61412 61.5492 0.373047 56.4969 0.373047H44.3086V37.626H56.4969C61.5492 37.626 64.38 34.9131 64.38 29.6446V23.6881C64.38 19.9137 62.7287 17.9871 60.2713 17.2401C62.7287 16.4931 64.38 14.6845 64.38 11.2835Z" fill="#131313"/>
<path d="M25.3399 25.3399H12.6601V12.6601H25.3202V25.3399H25.3399ZM19.0098 0C8.51216 0 0 8.51216 0 19.0098C0 29.5075 8.51216 38.0197 19.0098 38.0197C29.5075 38.0197 38.0197 29.5075 38.0197 19.0098C38 8.51216 29.5075 0 19.0098 0Z" fill="#131313"/>
</g>
<defs>
<clipPath id="clip0">
<rect width="151.096" height="38" fill="white"/>
</clipPath>
</defs>
</svg>
